<?xml version="1.0" encoding="UTF-8"?>
<svg width="198px" height="65px" viewBox="0 0 198 65" version="1.1" xmlns="http://www.w3.org/2000/svg" xmlns:xlink="http://www.w3.org/1999/xlink">
    <title>Group 7</title>
    <g id="Page-1" stroke="none" stroke-width="1" fill="none" fill-rule="evenodd">
        <g id="Desktop-HD-Copy-9" transform="translate(-191.000000, -4632.000000)">
            <g id="emotional-black-woman-showing-cellphone-with-blank-2021-12-09-07-52-41-utc-min-removebg-preview" transform="translate(123.000000, 4188.000000)">
                <g id="Group-6" transform="translate(68.000000, 444.000000)">
                    <g id="Group-7" transform="translate(-0.000000, 0.000000)">
                        <rect id="Rectangle-1-Copy-3" stroke="#FFFFFF" stroke-width="2" x="1" y="1" width="195.8" height="63" rx="15"></rect>
                        <path d="M50.4687764,30.8178571 C53.4878818,30.8178571 55.4184749,33.739 55.4184749,33.739 C55.4184749,33.739 52.4734266,35.3371429 52.4734266,38.8079286 C52.4734266,42.9273571 56.1730916,44.1256429 56.1730916,44.1256429 C56.1730916,44.1256429 53.2529419,51.0543571 49.973998,51.0543571 C48.1302305,51.0543571 48.0070148,49.9936429 45.5567448,49.9936429 C43.4288788,49.9936429 42.7112906,51.0543571 41.090333,51.0543571 C37.996532,51.0543571 34,44.3005 34,38.8079286 C34,33.1025714 38.0463291,30.8178571 40.5827862,30.8178571 C42.8102463,30.8178571 43.7378759,32.1286429 45.5318463,32.1286429 C47.0417182,32.1286429 48.2298246,30.8178571 50.4687764,30.8178571 L50.4687764,30.8178571 Z M49.9497379,25 C50.3947192,27.7964286 47.8582621,31.255 44.8270266,31.1425 C44.3814069,27.5842857 47.6482207,25.1877143 49.9497379,25 L49.9497379,25 Z" id="Imported-Layers-Copy" fill="#FFFFFF"></path>
                        <path d="M58.872,20.738 C59.936,20.738 60.8646667,20.4836667 61.658,19.975 C62.4513333,19.4663333 63.03,18.7453333 63.394,17.812 L63.394,17.812 L61.868,17.812 C61.5973333,18.4 61.2076667,18.8503333 60.699,19.163 C60.1903333,19.4756667 59.5813333,19.632 58.872,19.632 C58.1906667,19.632 57.5793333,19.4733333 57.038,19.156 C56.4966667,18.8386667 56.072,18.3883333 55.764,17.805 C55.456,17.2216667 55.302,16.5426667 55.302,15.768 C55.302,14.984 55.456,14.3003333 55.764,13.717 C56.072,13.1336667 56.4966667,12.6833333 57.038,12.366 C57.5793333,12.0486667 58.1906667,11.89 58.872,11.89 C59.5813333,11.89 60.1903333,12.0486667 60.699,12.366 C61.2076667,12.6833333 61.5973333,13.136 61.868,13.724 L61.868,13.724 L63.394,13.724 C63.03,12.7813333 62.4513333,12.0533333 61.658,11.54 C60.8646667,11.0266667 59.936,10.77 58.872,10.77 C57.9666667,10.77 57.143,10.9846667 56.401,11.414 C55.659,11.8433333 55.0733333,12.4383333 54.644,13.199 C54.2146667,13.9596667 54,14.816 54,15.768 C54,16.72 54.2146667,17.574 54.644,18.33 C55.0733333,19.086 55.659,19.6763333 56.401,20.101 C57.143,20.5256667 57.9666667,20.738 58.872,20.738 Z M68.63,20.78 C69.358,20.78 70.0206667,20.6166667 70.618,20.29 C71.2153333,19.9633333 71.689,19.499 72.039,18.897 C72.389,18.295 72.564,17.5973333 72.564,16.804 C72.564,16.0106667 72.3936667,15.3153333 72.053,14.718 C71.7123333,14.1206667 71.248,13.661 70.66,13.339 C70.072,13.017 69.414,12.856 68.686,12.856 C67.958,12.856 67.3,13.017 66.712,13.339 C66.124,13.661 65.6596667,14.123 65.319,14.725 C64.9783333,15.327 64.808,16.02 64.808,16.804 C64.808,17.5973333 64.9736667,18.295 65.305,18.897 C65.6363333,19.499 66.0936667,19.9633333 66.677,20.29 C67.2603333,20.6166667 67.9113333,20.78 68.63,20.78 Z M68.63,19.66 C68.1726667,19.66 67.7526667,19.555 67.37,19.345 C66.9873333,19.135 66.6816667,18.8153333 66.453,18.386 C66.2243333,17.9566667 66.11,17.4293333 66.11,16.804 C66.11,16.188 66.2266667,15.6653333 66.46,15.236 C66.6933333,14.8066667 67.0036667,14.487 67.391,14.277 C67.7783333,14.067 68.2053333,13.962 68.672,13.962 C69.1293333,13.962 69.554,14.067 69.946,14.277 C70.338,14.487 70.6553333,14.8066667 70.898,15.236 C71.1406667,15.6653333 71.262,16.188 71.262,16.804 C71.262,17.42 71.1383333,17.9426667 70.891,18.372 C70.6436667,18.8013333 70.3193333,19.1233333 69.918,19.338 C69.5166667,19.5526667 69.0873333,19.66 68.63,19.66 Z M75.518,20.654 L75.518,16.426 C75.518,15.6233333 75.714,15.0096667 76.106,14.585 C76.498,14.1603333 77.0253333,13.948 77.688,13.948 C78.332,13.948 78.843,14.151 79.221,14.557 C79.599,14.963 79.788,15.5486667 79.788,16.314 L79.788,16.314 L79.788,20.654 L81.048,20.654 L81.048,16.426 C81.048,15.6233333 81.244,15.0096667 81.636,14.585 C82.028,14.1603333 82.5553333,13.948 83.218,13.948 C83.862,13.948 84.373,14.151 84.751,14.557 C85.129,14.963 85.318,15.5486667 85.318,16.314 L85.318,16.314 L85.318,20.654 L86.578,20.654 L86.578,16.132 C86.578,15.4226667 86.4426667,14.8206667 86.172,14.326 C85.9013333,13.8313333 85.5326667,13.4603333 85.066,13.213 C84.5993333,12.9656667 84.0673333,12.842 83.47,12.842 C82.8633333,12.842 82.3126667,12.9913333 81.818,13.29 C81.3233333,13.5886667 80.9686667,14.0086667 80.754,14.55 C80.5113333,13.99 80.1426667,13.5653333 79.648,13.276 C79.1533333,12.9866667 78.584,12.842 77.94,12.842 C77.4266667,12.842 76.9576667,12.9493333 76.533,13.164 C76.1083333,13.3786667 75.77,13.6866667 75.518,14.088 L75.518,14.088 L75.518,12.982 L74.244,12.982 L74.244,20.654 L75.518,20.654 Z M89.322,11.736 C89.5553333,11.736 89.7536667,11.652 89.917,11.484 C90.0803333,11.316 90.162,11.1106667 90.162,10.868 C90.162,10.6253333 90.0803333,10.42 89.917,10.252 C89.7536667,10.084 89.5553333,10 89.322,10 C89.0793333,10 88.874,10.084 88.706,10.252 C88.538,10.42 88.454,10.6253333 88.454,10.868 C88.454,11.1106667 88.538,11.316 88.706,11.484 C88.874,11.652 89.0793333,11.736 89.322,11.736 Z M89.938,20.654 L89.938,12.982 L88.664,12.982 L88.664,20.654 L89.938,20.654 Z M93.382,20.654 L93.382,16.412 C93.382,15.6093333 93.5803333,14.998 93.977,14.578 C94.3736667,14.158 94.908,13.948 95.58,13.948 C96.2426667,13.948 96.7653333,14.151 97.148,14.557 C97.5306667,14.963 97.722,15.5486667 97.722,16.314 L97.722,16.314 L97.722,20.654 L98.982,20.654 L98.982,16.132 C98.982,15.068 98.6926667,14.2536667 98.114,13.689 C97.5353333,13.1243333 96.7793333,12.842 95.846,12.842 C95.3233333,12.842 94.845,12.9493333 94.411,13.164 C93.977,13.3786667 93.634,13.682 93.382,14.074 L93.382,14.074 L93.382,12.982 L92.108,12.982 L92.108,20.654 L93.382,20.654 Z M104.708,24.434 C105.445333,24.434 106.091667,24.28 106.647,23.972 C107.202333,23.664 107.629333,23.237 107.928,22.691 C108.226667,22.145 108.376,21.522 108.376,20.822 L108.376,20.822 L108.376,12.982 L107.088,12.982 L107.088,14.382 C106.845333,13.9433333 106.474333,13.5793333 105.975,13.29 C105.475667,13.0006667 104.894667,12.856 104.232,12.856 C103.550667,12.856 102.932333,13.0193333 102.377,13.346 C101.821667,13.6726667 101.385333,14.1323333 101.068,14.725 C100.750667,15.3176667 100.592,16.006 100.592,16.79 C100.592,17.5646667 100.750667,18.2553333 101.068,18.862 C101.385333,19.4686667 101.821667,19.94 102.377,20.276 C102.932333,20.612 103.550667,20.78 104.232,20.78 C104.894667,20.78 105.473333,20.6306667 105.968,20.332 C106.462667,20.0333333 106.836,19.66 107.088,19.212 L107.088,19.212 L107.088,20.822 C107.088,21.6153333 106.866333,22.2313333 106.423,22.67 C105.979667,23.1086667 105.408,23.328 104.708,23.328 C104.092,23.328 103.564667,23.1856667 103.126,22.901 C102.687333,22.6163333 102.398,22.2406667 102.258,21.774 L102.258,21.774 L100.998,21.774 C101.119333,22.5953333 101.516,23.244 102.188,23.72 C102.86,24.196 103.7,24.434 104.708,24.434 Z M104.484,19.66 C104.008,19.66 103.574,19.5456667 103.182,19.317 C102.79,19.0883333 102.477333,18.757 102.244,18.323 C102.010667,17.889 101.894,17.378 101.894,16.79 C101.894,16.2113333 102.010667,15.7073333 102.244,15.278 C102.477333,14.8486667 102.79,14.522 103.182,14.298 C103.574,14.074 104.008,13.962 104.484,13.962 C104.96,13.962 105.396333,14.0763333 105.793,14.305 C106.189667,14.5336667 106.504667,14.8626667 106.738,15.292 C106.971333,15.7213333 107.088,16.2253333 107.088,16.804 C107.088,17.3826667 106.971333,17.889 106.738,18.323 C106.504667,18.757 106.189667,19.0883333 105.793,19.317 C105.396333,19.5456667 104.96,19.66 104.484,19.66 Z M117.364,20.752 C118.036,20.752 118.619333,20.6213333 119.114,20.36 C119.608667,20.0986667 119.982,19.758 120.234,19.338 C120.486,18.918 120.612,18.47 120.612,17.994 C120.612,17.378 120.472,16.8903333 120.192,16.531 C119.912,16.1716667 119.576,15.9056667 119.184,15.733 C118.792,15.5603333 118.274,15.3853333 117.63,15.208 C117.098,15.0586667 116.685,14.9256667 116.391,14.809 C116.097,14.6923333 115.849667,14.522 115.649,14.298 C115.448333,14.074 115.348,13.7846667 115.348,13.43 C115.348,12.9353333 115.516,12.5503333 115.852,12.275 C116.188,11.9996667 116.622,11.862 117.154,11.862 C117.723333,11.862 118.180667,12.0043333 118.526,12.289 C118.871333,12.5736667 119.067333,12.9026667 119.114,13.276 L119.114,13.276 L120.514,13.276 C120.439333,12.52 120.110333,11.9133333 119.527,11.456 C118.943667,10.9986667 118.194667,10.77 117.28,10.77 C116.645333,10.77 116.083,10.882 115.593,11.106 C115.103,11.33 114.722667,11.6473333 114.452,12.058 C114.181333,12.4686667 114.046,12.94 114.046,13.472 C114.046,14.0786667 114.183667,14.5616667 114.459,14.921 C114.734333,15.2803333 115.065667,15.544 115.453,15.712 C115.840333,15.88 116.356,16.048 117,16.216 C117.522667,16.356 117.938,16.4866667 118.246,16.608 C118.554,16.7293333 118.810667,16.9066667 119.016,17.14 C119.221333,17.3733333 119.324,17.6766667 119.324,18.05 C119.324,18.526 119.149,18.9156667 118.799,19.219 C118.449,19.5223333 117.970667,19.674 117.364,19.674 C116.729333,19.674 116.246333,19.5176667 115.915,19.205 C115.583667,18.8923333 115.394667,18.5073333 115.348,18.05 L115.348,18.05 L113.99,18.05 C113.999333,18.582 114.148667,19.051 114.438,19.457 C114.727333,19.863 115.126333,20.1803333 115.635,20.409 C116.143667,20.6376667 116.72,20.752 117.364,20.752 Z M125.834,20.78 C126.562,20.78 127.224667,20.6166667 127.822,20.29 C128.419333,19.9633333 128.893,19.499 129.243,18.897 C129.593,18.295 129.768,17.5973333 129.768,16.804 C129.768,16.0106667 129.597667,15.3153333 129.257,14.718 C128.916333,14.1206667 128.452,13.661 127.864,13.339 C127.276,13.017 126.618,12.856 125.89,12.856 C125.162,12.856 124.504,13.017 123.916,13.339 C123.328,13.661 122.863667,14.123 122.523,14.725 C122.182333,15.327 122.012,16.02 122.012,16.804 C122.012,17.5973333 122.177667,18.295 122.509,18.897 C122.840333,19.499 123.297667,19.9633333 123.881,20.29 C124.464333,20.6166667 125.115333,20.78 125.834,20.78 Z M125.834,19.66 C125.376667,19.66 124.956667,19.555 124.574,19.345 C124.191333,19.135 123.885667,18.8153333 123.657,18.386 C123.428333,17.9566667 123.314,17.4293333 123.314,16.804 C123.314,16.188 123.430667,15.6653333 123.664,15.236 C123.897333,14.8066667 124.207667,14.487 124.595,14.277 C124.982333,14.067 125.409333,13.962 125.876,13.962 C126.333333,13.962 126.758,14.067 127.15,14.277 C127.542,14.487 127.859333,14.8066667 128.102,15.236 C128.344667,15.6653333 128.466,16.188 128.466,16.804 C128.466,17.42 128.342333,17.9426667 128.095,18.372 C127.847667,18.8013333 127.523333,19.1233333 127.122,19.338 C126.720667,19.5526667 126.291333,19.66 125.834,19.66 Z M134.794,20.78 C135.522,20.78 136.184667,20.6166667 136.782,20.29 C137.379333,19.9633333 137.853,19.499 138.203,18.897 C138.553,18.295 138.728,17.5973333 138.728,16.804 C138.728,16.0106667 138.557667,15.3153333 138.217,14.718 C137.876333,14.1206667 137.412,13.661 136.824,13.339 C136.236,13.017 135.578,12.856 134.85,12.856 C134.122,12.856 133.464,13.017 132.876,13.339 C132.288,13.661 131.823667,14.123 131.483,14.725 C131.142333,15.327 130.972,16.02 130.972,16.804 C130.972,17.5973333 131.137667,18.295 131.469,18.897 C131.800333,19.499 132.257667,19.9633333 132.841,20.29 C133.424333,20.6166667 134.075333,20.78 134.794,20.78 Z M134.794,19.66 C134.336667,19.66 133.916667,19.555 133.534,19.345 C133.151333,19.135 132.845667,18.8153333 132.617,18.386 C132.388333,17.9566667 132.274,17.4293333 132.274,16.804 C132.274,16.188 132.390667,15.6653333 132.624,15.236 C132.857333,14.8066667 133.167667,14.487 133.555,14.277 C133.942333,14.067 134.369333,13.962 134.836,13.962 C135.293333,13.962 135.718,14.067 136.11,14.277 C136.502,14.487 136.819333,14.8066667 137.062,15.236 C137.304667,15.6653333 137.426,16.188 137.426,16.804 C137.426,17.42 137.302333,17.9426667 137.055,18.372 C136.807667,18.8013333 136.483333,19.1233333 136.082,19.338 C135.680667,19.5526667 135.251333,19.66 134.794,19.66 Z M141.682,20.654 L141.682,16.412 C141.682,15.6093333 141.880333,14.998 142.277,14.578 C142.673667,14.158 143.208,13.948 143.88,13.948 C144.542667,13.948 145.065333,14.151 145.448,14.557 C145.830667,14.963 146.022,15.5486667 146.022,16.314 L146.022,16.314 L146.022,20.654 L147.282,20.654 L147.282,16.132 C147.282,15.068 146.992667,14.2536667 146.414,13.689 C145.835333,13.1243333 145.079333,12.842 144.146,12.842 C143.623333,12.842 143.145,12.9493333 142.711,13.164 C142.277,13.3786667 141.934,13.682 141.682,14.074 L141.682,14.074 L141.682,12.982 L140.408,12.982 L140.408,20.654 L141.682,20.654 Z" id="ComingSoon-Copy" fill="#FFFFFF" fill-rule="nonzero"></path>
                        <path d="M67.7935901,46.1903602 L68.8398509,43.2944596 L74.5195528,43.2944596 L75.5658137,46.1903602 L77.3594037,46.1903602 L72.669913,33.242882 L70.7081739,33.242882 L66,46.1903602 L67.7935901,46.1903602 Z M74.0337888,41.9119006 L69.3256149,41.9119006 L71.6797019,35.3354037 L74.0337888,41.9119006 Z M81.1147329,51.048 L81.1147329,44.303354 C81.4634865,44.8887619 81.9710476,45.3776398 82.6374161,45.7699876 C83.3037847,46.1623354 84.072911,46.3585093 84.944795,46.3585093 C85.8540455,46.3585093 86.6792215,46.1343106 87.420323,45.685913 C88.1614244,45.2375155 88.7437184,44.6085135 89.167205,43.7989068 C89.5906915,42.9893002 89.8024348,42.0675942 89.8024348,41.0337888 C89.8024348,39.987528 89.5906915,39.0689358 89.167205,38.2780124 C88.7437184,37.487089 88.1614244,36.8736563 87.420323,36.4377143 C86.6792215,36.0017723 85.8540455,35.7838012 84.944795,35.7838012 C84.0604555,35.7838012 83.2851014,35.9799752 82.6187329,36.372323 C81.9523644,36.7646708 81.4510311,37.2535487 81.1147329,37.8389565 L81.1147329,37.8389565 L81.1147329,35.9519503 L79.414559,35.9519503 L79.414559,51.048 L81.1147329,51.048 Z M84.5898137,44.8638509 C83.9670393,44.8638509 83.3909731,44.7112712 82.8616149,44.4061118 C82.3322567,44.1009524 81.9087702,43.6587826 81.5911553,43.0796025 C81.2735404,42.5004224 81.1147329,41.8247122 81.1147329,41.052472 C81.1147329,40.2926874 81.2735404,39.623205 81.5911553,39.0440248 C81.9087702,38.4648447 82.3322567,38.0226749 82.8616149,37.7175155 C83.3909731,37.4123561 83.9670393,37.2597764 84.5898137,37.2597764 C85.2250435,37.2597764 85.8073375,37.4092422 86.3366957,37.7081739 C86.8660538,38.0071056 87.2864265,38.4430476 87.5978137,39.016 C87.9092008,39.5889524 88.0648944,40.2615487 88.0648944,41.0337888 C88.0648944,41.8184845 87.9092008,42.5004224 87.5978137,43.0796025 C87.2864265,43.6587826 86.8660538,44.1009524 86.3366957,44.4061118 C85.8073375,44.7112712 85.2250435,44.8638509 84.5898137,44.8638509 Z M93.7445963,51.048 L93.7445963,44.303354 C94.0933499,44.8887619 94.600911,45.3776398 95.2672795,45.7699876 C95.933648,46.1623354 96.7027743,46.3585093 97.5746584,46.3585093 C98.4839089,46.3585093 99.3090849,46.1343106 100.050186,45.685913 C100.791288,45.2375155 101.373582,44.6085135 101.797068,43.7989068 C102.220555,42.9893002 102.432298,42.0675942 102.432298,41.0337888 C102.432298,39.987528 102.220555,39.0689358 101.797068,38.2780124 C101.373582,37.487089 100.791288,36.8736563 100.050186,36.4377143 C99.3090849,36.0017723 98.4839089,35.7838012 97.5746584,35.7838012 C96.6903188,35.7838012 95.9149648,35.9799752 95.2485963,36.372323 C94.5822277,36.7646708 94.0808944,37.2535487 93.7445963,37.8389565 L93.7445963,37.8389565 L93.7445963,35.9519503 L92.0444224,35.9519503 L92.0444224,51.048 L93.7445963,51.048 Z M97.219677,44.8638509 C96.5969027,44.8638509 96.0208364,44.7112712 95.4914783,44.4061118 C94.9621201,44.1009524 94.5386335,43.6587826 94.2210186,43.0796025 C93.9034037,42.5004224 93.7445963,41.8247122 93.7445963,41.052472 C93.7445963,40.2926874 93.9034037,39.623205 94.2210186,39.0440248 C94.5386335,38.4648447 94.9621201,38.0226749 95.4914783,37.7175155 C96.0208364,37.4123561 96.5969027,37.2597764 97.219677,37.2597764 C97.8549068,37.2597764 98.4372008,37.4092422 98.966559,37.7081739 C99.4959172,38.0071056 99.9162899,38.4430476 100.227677,39.016 C100.539064,39.5889524 100.694758,40.2615487 100.694758,41.0337888 C100.694758,41.8184845 100.539064,42.5004224 100.227677,43.0796025 C99.9162899,43.6587826 99.4959172,44.1009524 98.966559,44.4061118 C98.4372008,44.7112712 97.8549068,44.8638509 97.219677,44.8638509 Z M113.791702,46.3211429 C114.688497,46.3211429 115.466965,46.146766 116.127106,45.7980124 C116.787246,45.4492588 117.285466,44.9946335 117.621764,44.4341366 C117.958062,43.8736398 118.126211,43.2757764 118.126211,42.6405466 C118.126211,41.8184845 117.939379,41.1676853 117.565714,40.6881491 C117.19205,40.2086128 116.743652,39.8536315 116.220522,39.623205 C115.697391,39.3927785 115.006112,39.1592381 114.146683,38.9225839 C113.43672,38.7232961 112.885565,38.5458054 112.493217,38.3901118 C112.10087,38.2344182 111.770799,38.0071056 111.503006,37.7081739 C111.235213,37.4092422 111.101317,37.0231222 111.101317,36.5498137 C111.101317,35.8896729 111.325516,35.3758841 111.773913,35.0084472 C112.222311,34.6410104 112.801491,34.4572919 113.511453,34.4572919 C114.271238,34.4572919 114.881557,34.6472381 115.34241,35.0271304 C115.803263,35.4070228 116.064828,35.8460787 116.127106,36.3442981 L116.127106,36.3442981 L117.995429,36.3442981 C117.895785,35.3354037 117.456729,34.5257971 116.678261,33.9154783 C115.899793,33.3051594 114.90024,33 113.679602,33 C112.832629,33 112.082186,33.1494658 111.428273,33.4483975 C110.77436,33.7473292 110.266799,34.1708157 109.90559,34.7188571 C109.544381,35.2668986 109.363776,35.8959006 109.363776,36.6058634 C109.363776,37.41547 109.547495,38.0600414 109.914932,38.5395776 C110.282369,39.0191139 110.724538,39.3709814 111.241441,39.5951801 C111.758344,39.8193789 112.446509,40.0435776 113.305938,40.2677764 C114.003445,40.4546087 114.557714,40.6289855 114.968745,40.7909068 C115.379776,40.9528282 115.722302,41.1894824 115.996323,41.5008696 C116.270344,41.8122567 116.407354,42.21706 116.407354,42.7152795 C116.407354,43.3505093 116.173814,43.8705259 115.706733,44.2753292 C115.239652,44.6801325 114.601308,44.8825342 113.791702,44.8825342 C112.944729,44.8825342 112.300157,44.6739048 111.857988,44.256646 C111.415818,43.8393872 111.163594,43.3255983 111.101317,42.7152795 L111.101317,42.7152795 L109.289043,42.7152795 C109.301499,43.4252422 109.500787,44.0511304 109.886907,44.5929441 C110.273027,45.1347578 110.805499,45.5582443 111.484323,45.8634037 C112.163147,46.1685631 112.932273,46.3211429 113.791702,46.3211429 Z M125.375304,46.1903602 L125.375304,44.7517516 L124.123528,44.7517516 C123.600398,44.7517516 123.232961,44.6489938 123.021217,44.4434783 C122.809474,44.2379627 122.703602,43.8860952 122.703602,43.3878758 L122.703602,43.3878758 L122.703602,37.3531925 L125.375304,37.3531925 L125.375304,35.9519503 L122.703602,35.9519503 L122.703602,33.3736646 L121.003429,33.3736646 L121.003429,35.9519503 L119.676919,35.9519503 L119.676919,37.3531925 L121.003429,37.3531925 L121.003429,43.3878758 C121.003429,44.3843147 121.240083,45.1005052 121.713391,45.5364472 C122.1867,45.9723892 122.896663,46.1903602 123.84328,46.1903602 L123.84328,46.1903602 L125.375304,46.1903602 Z M131.895752,46.3585093 C132.86728,46.3585093 133.751619,46.1405383 134.54877,45.7045963 C135.345921,45.2686542 135.978037,44.6489938 136.445118,43.8456149 C136.912199,43.042236 137.145739,42.1111884 137.145739,41.052472 C137.145739,39.9937557 136.918427,39.0658219 136.463801,38.2686708 C136.009176,37.4715197 135.389516,36.858087 134.60482,36.4283727 C133.820124,35.9986584 132.942012,35.7838012 131.970484,35.7838012 C130.998957,35.7838012 130.120845,35.9986584 129.336149,36.4283727 C128.551453,36.858087 127.931793,37.4746335 127.477168,38.2780124 C127.022542,39.0813913 126.79523,40.0062112 126.79523,41.052472 C126.79523,42.1111884 127.016315,43.042236 127.458484,43.8456149 C127.900654,44.6489938 128.510973,45.2686542 129.289441,45.7045963 C130.067909,46.1405383 130.936679,46.3585093 131.895752,46.3585093 Z M131.895752,44.8638509 C131.285433,44.8638509 130.724936,44.7237267 130.214261,44.4434783 C129.703586,44.1632298 129.295669,43.7366294 128.990509,43.163677 C128.68535,42.5907246 128.53277,41.8869896 128.53277,41.052472 C128.53277,40.2304099 128.688464,39.5329027 128.999851,38.9599503 C129.311238,38.3869979 129.725383,37.9603975 130.242286,37.6801491 C130.759188,37.3999006 131.329027,37.2597764 131.951801,37.2597764 C132.56212,37.2597764 133.128845,37.3999006 133.651975,37.6801491 C134.175106,37.9603975 134.598592,38.3869979 134.922435,38.9599503 C135.246277,39.5329027 135.408199,40.2304099 135.408199,41.052472 C135.408199,41.8745342 135.243164,42.5720414 134.913093,43.1449938 C134.583023,43.7179462 134.150195,44.1476605 133.614609,44.4341366 C133.079023,44.7206128 132.50607,44.8638509 131.895752,44.8638509 Z M141.087901,46.1903602 L141.087901,40.6227578 C141.087901,38.555147 142.040745,37.5213416 143.946435,37.5213416 L143.946435,37.5213416 L144.394832,37.5213416 L144.394832,35.765118 C143.597681,35.765118 142.921971,35.9270393 142.367702,36.250882 C141.813433,36.5747246 141.386832,37.0293499 141.087901,37.6147578 L141.087901,37.6147578 L141.087901,35.9519503 L139.387727,35.9519503 L139.387727,46.1903602 L141.087901,46.1903602 Z M150.784497,46.3585093 C152.005135,46.3585093 153.026484,46.050236 153.848547,45.4336894 C154.670609,44.8171429 155.21865,44.0168778 155.492671,43.0328944 L155.492671,43.0328944 L153.661714,43.0328944 C153.462427,43.6058468 153.116787,44.0635859 152.624795,44.4061118 C152.132803,44.7486377 151.519371,44.9199006 150.784497,44.9199006 C149.887702,44.9199006 149.124803,44.6365383 148.495801,44.0698137 C147.866799,43.503089 147.521159,42.7152795 147.458882,41.7063851 L147.458882,41.7063851 L155.642137,41.7063851 C155.679503,41.345176 155.698186,41.0026501 155.698186,40.6788075 C155.698186,39.744646 155.495785,38.9070145 155.090981,38.165913 C154.686178,37.4248116 154.110112,36.8425176 153.362783,36.4190311 C152.615453,35.9955445 151.756025,35.7838012 150.784497,35.7838012 C149.788058,35.7838012 148.906832,35.9986584 148.14082,36.4283727 C147.374807,36.858087 146.780058,37.4715197 146.356571,38.2686708 C145.933085,39.0658219 145.721342,39.9937557 145.721342,41.052472 C145.721342,42.1111884 145.939313,43.042236 146.375255,43.8456149 C146.811197,44.6489938 147.412174,45.2686542 148.178186,45.7045963 C148.944199,46.1405383 149.812969,46.3585093 150.784497,46.3585093 Z M153.941963,40.3238261 L147.477565,40.3238261 C147.564754,39.3522981 147.910393,38.5925135 148.514484,38.044472 C149.118576,37.4964306 149.850335,37.2224099 150.709764,37.2224099 C151.307627,37.2224099 151.852555,37.3438509 152.344547,37.5867329 C152.836538,37.8296149 153.225772,38.1845963 153.512248,38.651677 C153.798725,39.1187578 153.941963,39.6761408 153.941963,40.3238261 L153.941963,40.3238261 Z" id="AppStore-Copy" fill="#FFFFFF" fill-rule="nonzero"></path>
                    </g>
                </g>
            </g>
        </g>
    </g>
</svg>