<?xml version="1.0" encoding="UTF-8"?>
<svg width="262px" height="45px" viewBox="0 0 262 45" version="1.1" xmlns="http://www.w3.org/2000/svg" xmlns:xlink="http://www.w3.org/1999/xlink">
    <title>Group 4</title>
    <g id="Page-1" stroke="none" stroke-width="1" fill="none" fill-rule="evenodd">
        <g id="Desktop-HD-Copy-9" transform="translate(-134.000000, -45.000000)">
            <g id="Group-4" transform="translate(134.000000, 45.000000)">
                <g id="Crowdbux" transform="translate(56.878846, 5.895700)" fill="#000000" fill-rule="nonzero">
                    <path d="M0,15.7903846 C0,13.0442308 0.639423077,10.5807692 1.91826923,8.4 C3.19711538,6.21923077 4.93365385,4.51634615 7.12788462,3.29134615 C9.32211538,2.06634615 11.725,1.45384615 14.3365385,1.45384615 C17.325,1.45384615 19.9836538,2.1875 22.3125,3.65480769 C24.6413462,5.12211538 26.3307692,7.20192308 27.3807692,9.89423077 L21.8480769,9.89423077 C21.1211538,8.41346154 20.1115385,7.30961538 18.8192308,6.58269231 C17.5269231,5.85576923 16.0326923,5.49230769 14.3365385,5.49230769 C12.4788462,5.49230769 10.8230769,5.90961538 9.36923077,6.74423077 C7.91538462,7.57884615 6.77788462,8.77692308 5.95673077,10.3384615 C5.13557692,11.9 4.725,13.7173077 4.725,15.7903846 C4.725,17.8634615 5.13557692,19.6807692 5.95673077,21.2423077 C6.77788462,22.8038462 7.91538462,24.0086538 9.36923077,24.8567308 C10.8230769,25.7048077 12.4788462,26.1288462 14.3365385,26.1288462 C16.0326923,26.1288462 17.5269231,25.7653846 18.8192308,25.0384615 C20.1115385,24.3115385 21.1211538,23.2076923 21.8480769,21.7269231 L27.3807692,21.7269231 C26.3307692,24.4192308 24.6413462,26.4923077 22.3125,27.9461538 C19.9836538,29.4 17.325,30.1269231 14.3365385,30.1269231 C11.6980769,30.1269231 9.28846154,29.5144231 7.10769231,28.2894231 C4.92692308,27.0644231 3.19711538,25.3615385 1.91826923,23.1807692 C0.639423077,21 0,18.5365385 0,15.7903846 Z M37.3557692,10.8634615 C38.0288462,9.73269231 38.9240385,8.85096154 40.0413462,8.21826923 C41.1586538,7.58557692 42.4846154,7.26923077 44.0192308,7.26923077 L44.0192308,12.0346154 L42.8480769,12.0346154 C41.0442308,12.0346154 39.6778846,12.4923077 38.7490385,13.4076923 C37.8201923,14.3230769 37.3557692,15.9115385 37.3557692,18.1730769 L37.3557692,29.8846154 L32.7519231,29.8846154 L32.7519231,7.63269231 L37.3557692,7.63269231 L37.3557692,10.8634615 Z M57.9115385,30.2480769 C55.8115385,30.2480769 53.9134615,29.7701923 52.2173077,28.8144231 C50.5211538,27.8586538 49.1884615,26.5125 48.2192308,24.7759615 C47.25,23.0394231 46.7653846,21.0269231 46.7653846,18.7384615 C46.7653846,16.4769231 47.2634615,14.4711538 48.2596154,12.7211538 C49.2557692,10.9711538 50.6153846,9.625 52.3384615,8.68269231 C54.0615385,7.74038462 55.9865385,7.26923077 58.1134615,7.26923077 C60.2403846,7.26923077 62.1653846,7.74038462 63.8884615,8.68269231 C65.6115385,9.625 66.9711538,10.9711538 67.9673077,12.7211538 C68.9634615,14.4711538 69.4615385,16.4769231 69.4615385,18.7384615 C69.4615385,21 68.95,23.0057692 67.9269231,24.7557692 C66.9038462,26.5057692 65.5105769,27.8586538 63.7471154,28.8144231 C61.9836538,29.7701923 60.0384615,30.2480769 57.9115385,30.2480769 Z M57.9115385,26.25 C59.0961538,26.25 60.2067308,25.9673077 61.2432692,25.4019231 C62.2798077,24.8365385 63.1211538,23.9884615 63.7673077,22.8576923 C64.4134615,21.7269231 64.7365385,20.3538462 64.7365385,18.7384615 C64.7365385,17.1230769 64.4269231,15.7567308 63.8076923,14.6394231 C63.1884615,13.5221154 62.3673077,12.6807692 61.3442308,12.1153846 C60.3211538,11.55 59.2173077,11.2673077 58.0326923,11.2673077 C56.8480769,11.2673077 55.7509615,11.55 54.7413462,12.1153846 C53.7317308,12.6807692 52.9307692,13.5221154 52.3384615,14.6394231 C51.7461538,15.7567308 51.45,17.1230769 51.45,18.7384615 C51.45,21.1346154 52.0625,22.9855769 53.2875,24.2913462 C54.5125,25.5971154 56.0538462,26.25 57.9115385,26.25 Z M103.909615,7.63269231 L97.0038462,29.8846154 L92.1576923,29.8846154 L87.675,13.4480769 L83.1923077,29.8846154 L78.3461538,29.8846154 L71.4,7.63269231 L76.0846154,7.63269231 L80.7288462,25.5230769 L85.4538462,7.63269231 L90.2596154,7.63269231 L94.7826923,25.4423077 L99.3865385,7.63269231 L103.909615,7.63269231 Z M105.807692,18.6576923 C105.807692,16.4230769 106.272115,14.4442308 107.200962,12.7211538 C108.129808,10.9980769 109.395192,9.65865385 110.997115,8.70288462 C112.599038,7.74711538 114.382692,7.26923077 116.348077,7.26923077 C117.801923,7.26923077 119.235577,7.58557692 120.649038,8.21826923 C122.0625,8.85096154 123.186538,9.69230769 124.021154,10.7423077 L124.021154,0 L128.665385,0 L128.665385,29.8846154 L124.021154,29.8846154 L124.021154,26.5326923 C123.267308,27.6096154 122.224038,28.4980769 120.891346,29.1980769 C119.558654,29.8980769 118.030769,30.2480769 116.307692,30.2480769 C114.369231,30.2480769 112.599038,29.7567308 110.997115,28.7740385 C109.395192,27.7913462 108.129808,26.4182692 107.200962,24.6548077 C106.272115,22.8913462 105.807692,20.8923077 105.807692,18.6576923 Z M124.021154,18.7384615 C124.021154,17.2038462 123.704808,15.8711538 123.072115,14.7403846 C122.439423,13.6096154 121.611538,12.7480769 120.588462,12.1557692 C119.565385,11.5634615 118.461538,11.2673077 117.276923,11.2673077 C116.092308,11.2673077 114.988462,11.5567308 113.965385,12.1355769 C112.942308,12.7144231 112.114423,13.5625 111.481731,14.6798077 C110.849038,15.7971154 110.532692,17.1230769 110.532692,18.6576923 C110.532692,20.1923077 110.849038,21.5384615 111.481731,22.6961538 C112.114423,23.8538462 112.949038,24.7355769 113.985577,25.3413462 C115.022115,25.9471154 116.119231,26.25 117.276923,26.25 C118.461538,26.25 119.565385,25.9538462 120.588462,25.3615385 C121.611538,24.7692308 122.439423,23.9009615 123.072115,22.7567308 C123.704808,21.6125 124.021154,20.2730769 124.021154,18.7384615 Z M139.326923,10.9442308 C140.107692,9.86730769 141.177885,8.98557692 142.5375,8.29903846 C143.897115,7.6125 145.411538,7.26923077 147.080769,7.26923077 C149.046154,7.26923077 150.823077,7.74038462 152.411538,8.68269231 C154,9.625 155.251923,10.9644231 156.167308,12.7009615 C157.082692,14.4375 157.540385,16.4230769 157.540385,18.6576923 C157.540385,20.8923077 157.082692,22.8913462 156.167308,24.6548077 C155.251923,26.4182692 153.993269,27.7913462 152.391346,28.7740385 C150.789423,29.7567308 149.019231,30.2480769 147.080769,30.2480769 C145.357692,30.2480769 143.829808,29.9115385 142.497115,29.2384615 C141.164423,28.5653846 140.107692,27.7038462 139.326923,26.6538462 L139.326923,29.8846154 L134.723077,29.8846154 L134.723077,0 L139.326923,0 L139.326923,10.9442308 Z M152.855769,18.6576923 C152.855769,17.1230769 152.539423,15.7971154 151.906731,14.6798077 C151.274038,13.5625 150.439423,12.7144231 149.402885,12.1355769 C148.366346,11.5567308 147.255769,11.2673077 146.071154,11.2673077 C144.913462,11.2673077 143.816346,11.5634615 142.779808,12.1557692 C141.743269,12.7480769 140.908654,13.6096154 140.275962,14.7403846 C139.643269,15.8711538 139.326923,17.2038462 139.326923,18.7384615 C139.326923,20.2730769 139.643269,21.6125 140.275962,22.7567308 C140.908654,23.9009615 141.743269,24.7692308 142.779808,25.3615385 C143.816346,25.9538462 144.913462,26.25 146.071154,26.25 C147.255769,26.25 148.366346,25.9471154 149.402885,25.3413462 C150.439423,24.7355769 151.274038,23.8538462 151.906731,22.6961538 C152.539423,21.5384615 152.855769,20.1923077 152.855769,18.6576923 Z M182.255769,7.63269231 L182.255769,29.8846154 L177.651923,29.8846154 L177.651923,27.2596154 C176.925,28.175 175.975962,28.8951923 174.804808,29.4201923 C173.633654,29.9451923 172.388462,30.2076923 171.069231,30.2076923 C169.319231,30.2076923 167.750962,29.8442308 166.364423,29.1173077 C164.977885,28.3903846 163.8875,27.3134615 163.093269,25.8865385 C162.299038,24.4596154 161.901923,22.7365385 161.901923,20.7173077 L161.901923,7.63269231 L166.465385,7.63269231 L166.465385,20.0307692 C166.465385,22.0230769 166.963462,23.5509615 167.959615,24.6144231 C168.955769,25.6778846 170.315385,26.2096154 172.038462,26.2096154 C173.761538,26.2096154 175.127885,25.6778846 176.1375,24.6144231 C177.147115,23.5509615 177.651923,22.0230769 177.651923,20.0307692 L177.651923,7.63269231 L182.255769,7.63269231 Z M197.844231,18.6173077 L205.032692,29.8846154 L199.823077,29.8846154 L195.017308,22.3326923 L190.494231,29.8846154 L185.688462,29.8846154 L192.876923,18.9403846 L185.688462,7.63269231 L190.898077,7.63269231 L195.703846,15.1846154 L200.226923,7.63269231 L205.032692,7.63269231 L197.844231,18.6173077 Z" id="Combined-Shape"></path>
                </g>
                <path d="M23.823,0 L23.823,20.769 L14.4230769,20.7692308 C13.5175088,20.7692308 12.7743766,21.4647015 12.6986606,22.3506626 L12.6923077,22.5 C12.6923077,23.4055681 13.3877784,24.1487003 14.2737395,24.2244163 L14.4230769,24.2307692 L23.823,24.23 L23.823,45 L8,45 C3.581722,45 2.31743984e-15,41.418278 0,37 L0,8 C-5.41083001e-16,3.581722 3.581722,2.58798134e-15 8,0 L23.823,0 Z M27.794,24.23 L45,24.23 L45,37 C45,41.418278 41.418278,45 37,45 L27.794,45 L27.794,24.23 Z M37,0 C41.418278,-8.11624501e-16 45,3.581722 45,8 L45,20.769 L27.794,20.769 L27.794,0 L37,0 Z" id="Combined-Shape" fill="#6236FF"></path>
            </g>
        </g>
    </g>
</svg>