<?xml version="1.0" encoding="UTF-8"?>
<svg width="198px" height="65px" viewBox="0 0 198 65" version="1.1" xmlns="http://www.w3.org/2000/svg" xmlns:xlink="http://www.w3.org/1999/xlink">
    <title>Group 8</title>
    <g id="Page-1" stroke="none" stroke-width="1" fill="none" fill-rule="evenodd">
        <g id="Desktop-HD-Copy-9" transform="translate(-412.000000, -4632.000000)">
            <g id="emotional-black-woman-showing-cellphone-with-blank-2021-12-09-07-52-41-utc-min-removebg-preview" transform="translate(123.000000, 4188.000000)">
                <g id="Group-6" transform="translate(68.000000, 444.000000)">
                    <g id="Group-8" transform="translate(221.000000, 0.000000)">
                        <path d="M57.474,21.084 C58.538,21.084 59.4666667,20.8296667 60.26,20.321 C61.0533333,19.8123333 61.632,19.0913333 61.996,18.158 L61.996,18.158 L60.47,18.158 C60.1993333,18.746 59.8096667,19.1963333 59.301,19.509 C58.7923333,19.8216667 58.1833333,19.978 57.474,19.978 C56.7926667,19.978 56.1813333,19.8193333 55.64,19.502 C55.0986667,19.1846667 54.674,18.7343333 54.366,18.151 C54.058,17.5676667 53.904,16.8886667 53.904,16.114 C53.904,15.33 54.058,14.6463333 54.366,14.063 C54.674,13.4796667 55.0986667,13.0293333 55.64,12.712 C56.1813333,12.3946667 56.7926667,12.236 57.474,12.236 C58.1833333,12.236 58.7923333,12.3946667 59.301,12.712 C59.8096667,13.0293333 60.1993333,13.482 60.47,14.07 L60.47,14.07 L61.996,14.07 C61.632,13.1273333 61.0533333,12.3993333 60.26,11.886 C59.4666667,11.3726667 58.538,11.116 57.474,11.116 C56.5686667,11.116 55.745,11.3306667 55.003,11.76 C54.261,12.1893333 53.6753333,12.7843333 53.246,13.545 C52.8166667,14.3056667 52.602,15.162 52.602,16.114 C52.602,17.066 52.8166667,17.92 53.246,18.676 C53.6753333,19.432 54.261,20.0223333 55.003,20.447 C55.745,20.8716667 56.5686667,21.084 57.474,21.084 Z M67.232,21.126 C67.96,21.126 68.6226667,20.9626667 69.22,20.636 C69.8173333,20.3093333 70.291,19.845 70.641,19.243 C70.991,18.641 71.166,17.9433333 71.166,17.15 C71.166,16.3566667 70.9956667,15.6613333 70.655,15.064 C70.3143333,14.4666667 69.85,14.007 69.262,13.685 C68.674,13.363 68.016,13.202 67.288,13.202 C66.56,13.202 65.902,13.363 65.314,13.685 C64.726,14.007 64.2616667,14.469 63.921,15.071 C63.5803333,15.673 63.41,16.366 63.41,17.15 C63.41,17.9433333 63.5756667,18.641 63.907,19.243 C64.2383333,19.845 64.6956667,20.3093333 65.279,20.636 C65.8623333,20.9626667 66.5133333,21.126 67.232,21.126 Z M67.232,20.006 C66.7746667,20.006 66.3546667,19.901 65.972,19.691 C65.5893333,19.481 65.2836667,19.1613333 65.055,18.732 C64.8263333,18.3026667 64.712,17.7753333 64.712,17.15 C64.712,16.534 64.8286667,16.0113333 65.062,15.582 C65.2953333,15.1526667 65.6056667,14.833 65.993,14.623 C66.3803333,14.413 66.8073333,14.308 67.274,14.308 C67.7313333,14.308 68.156,14.413 68.548,14.623 C68.94,14.833 69.2573333,15.1526667 69.5,15.582 C69.7426667,16.0113333 69.864,16.534 69.864,17.15 C69.864,17.766 69.7403333,18.2886667 69.493,18.718 C69.2456667,19.1473333 68.9213333,19.4693333 68.52,19.684 C68.1186667,19.8986667 67.6893333,20.006 67.232,20.006 Z M74.12,21 L74.12,16.772 C74.12,15.9693333 74.316,15.3556667 74.708,14.931 C75.1,14.5063333 75.6273333,14.294 76.29,14.294 C76.934,14.294 77.445,14.497 77.823,14.903 C78.201,15.309 78.39,15.8946667 78.39,16.66 L78.39,16.66 L78.39,21 L79.65,21 L79.65,16.772 C79.65,15.9693333 79.846,15.3556667 80.238,14.931 C80.63,14.5063333 81.1573333,14.294 81.82,14.294 C82.464,14.294 82.975,14.497 83.353,14.903 C83.731,15.309 83.92,15.8946667 83.92,16.66 L83.92,16.66 L83.92,21 L85.18,21 L85.18,16.478 C85.18,15.7686667 85.0446667,15.1666667 84.774,14.672 C84.5033333,14.1773333 84.1346667,13.8063333 83.668,13.559 C83.2013333,13.3116667 82.6693333,13.188 82.072,13.188 C81.4653333,13.188 80.9146667,13.3373333 80.42,13.636 C79.9253333,13.9346667 79.5706667,14.3546667 79.356,14.896 C79.1133333,14.336 78.7446667,13.9113333 78.25,13.622 C77.7553333,13.3326667 77.186,13.188 76.542,13.188 C76.0286667,13.188 75.5596667,13.2953333 75.135,13.51 C74.7103333,13.7246667 74.372,14.0326667 74.12,14.434 L74.12,14.434 L74.12,13.328 L72.846,13.328 L72.846,21 L74.12,21 Z M87.924,12.082 C88.1573333,12.082 88.3556667,11.998 88.519,11.83 C88.6823333,11.662 88.764,11.4566667 88.764,11.214 C88.764,10.9713333 88.6823333,10.766 88.519,10.598 C88.3556667,10.43 88.1573333,10.346 87.924,10.346 C87.6813333,10.346 87.476,10.43 87.308,10.598 C87.14,10.766 87.056,10.9713333 87.056,11.214 C87.056,11.4566667 87.14,11.662 87.308,11.83 C87.476,11.998 87.6813333,12.082 87.924,12.082 Z M88.54,21 L88.54,13.328 L87.266,13.328 L87.266,21 L88.54,21 Z M91.984,21 L91.984,16.758 C91.984,15.9553333 92.1823333,15.344 92.579,14.924 C92.9756667,14.504 93.51,14.294 94.182,14.294 C94.8446667,14.294 95.3673333,14.497 95.75,14.903 C96.1326667,15.309 96.324,15.8946667 96.324,16.66 L96.324,16.66 L96.324,21 L97.584,21 L97.584,16.478 C97.584,15.414 97.2946667,14.5996667 96.716,14.035 C96.1373333,13.4703333 95.3813333,13.188 94.448,13.188 C93.9253333,13.188 93.447,13.2953333 93.013,13.51 C92.579,13.7246667 92.236,14.028 91.984,14.42 L91.984,14.42 L91.984,13.328 L90.71,13.328 L90.71,21 L91.984,21 Z M103.31,24.78 C104.047333,24.78 104.693667,24.626 105.249,24.318 C105.804333,24.01 106.231333,23.583 106.53,23.037 C106.828667,22.491 106.978,21.868 106.978,21.168 L106.978,21.168 L106.978,13.328 L105.69,13.328 L105.69,14.728 C105.447333,14.2893333 105.076333,13.9253333 104.577,13.636 C104.077667,13.3466667 103.496667,13.202 102.834,13.202 C102.152667,13.202 101.534333,13.3653333 100.979,13.692 C100.423667,14.0186667 99.9873333,14.4783333 99.67,15.071 C99.3526667,15.6636667 99.194,16.352 99.194,17.136 C99.194,17.9106667 99.3526667,18.6013333 99.67,19.208 C99.9873333,19.8146667 100.423667,20.286 100.979,20.622 C101.534333,20.958 102.152667,21.126 102.834,21.126 C103.496667,21.126 104.075333,20.9766667 104.57,20.678 C105.064667,20.3793333 105.438,20.006 105.69,19.558 L105.69,19.558 L105.69,21.168 C105.69,21.9613333 105.468333,22.5773333 105.025,23.016 C104.581667,23.4546667 104.01,23.674 103.31,23.674 C102.694,23.674 102.166667,23.5316667 101.728,23.247 C101.289333,22.9623333 101,22.5866667 100.86,22.12 L100.86,22.12 L99.6,22.12 C99.7213333,22.9413333 100.118,23.59 100.79,24.066 C101.462,24.542 102.302,24.78 103.31,24.78 Z M103.086,20.006 C102.61,20.006 102.176,19.8916667 101.784,19.663 C101.392,19.4343333 101.079333,19.103 100.846,18.669 C100.612667,18.235 100.496,17.724 100.496,17.136 C100.496,16.5573333 100.612667,16.0533333 100.846,15.624 C101.079333,15.1946667 101.392,14.868 101.784,14.644 C102.176,14.42 102.61,14.308 103.086,14.308 C103.562,14.308 103.998333,14.4223333 104.395,14.651 C104.791667,14.8796667 105.106667,15.2086667 105.34,15.638 C105.573333,16.0673333 105.69,16.5713333 105.69,17.15 C105.69,17.7286667 105.573333,18.235 105.34,18.669 C105.106667,19.103 104.791667,19.4343333 104.395,19.663 C103.998333,19.8916667 103.562,20.006 103.086,20.006 Z M115.966,21.098 C116.638,21.098 117.221333,20.9673333 117.716,20.706 C118.210667,20.4446667 118.584,20.104 118.836,19.684 C119.088,19.264 119.214,18.816 119.214,18.34 C119.214,17.724 119.074,17.2363333 118.794,16.877 C118.514,16.5176667 118.178,16.2516667 117.786,16.079 C117.394,15.9063333 116.876,15.7313333 116.232,15.554 C115.7,15.4046667 115.287,15.2716667 114.993,15.155 C114.699,15.0383333 114.451667,14.868 114.251,14.644 C114.050333,14.42 113.95,14.1306667 113.95,13.776 C113.95,13.2813333 114.118,12.8963333 114.454,12.621 C114.79,12.3456667 115.224,12.208 115.756,12.208 C116.325333,12.208 116.782667,12.3503333 117.128,12.635 C117.473333,12.9196667 117.669333,13.2486667 117.716,13.622 L117.716,13.622 L119.116,13.622 C119.041333,12.866 118.712333,12.2593333 118.129,11.802 C117.545667,11.3446667 116.796667,11.116 115.882,11.116 C115.247333,11.116 114.685,11.228 114.195,11.452 C113.705,11.676 113.324667,11.9933333 113.054,12.404 C112.783333,12.8146667 112.648,13.286 112.648,13.818 C112.648,14.4246667 112.785667,14.9076667 113.061,15.267 C113.336333,15.6263333 113.667667,15.89 114.055,16.058 C114.442333,16.226 114.958,16.394 115.602,16.562 C116.124667,16.702 116.54,16.8326667 116.848,16.954 C117.156,17.0753333 117.412667,17.2526667 117.618,17.486 C117.823333,17.7193333 117.926,18.0226667 117.926,18.396 C117.926,18.872 117.751,19.2616667 117.401,19.565 C117.051,19.8683333 116.572667,20.02 115.966,20.02 C115.331333,20.02 114.848333,19.8636667 114.517,19.551 C114.185667,19.2383333 113.996667,18.8533333 113.95,18.396 L113.95,18.396 L112.592,18.396 C112.601333,18.928 112.750667,19.397 113.04,19.803 C113.329333,20.209 113.728333,20.5263333 114.237,20.755 C114.745667,20.9836667 115.322,21.098 115.966,21.098 Z M124.436,21.126 C125.164,21.126 125.826667,20.9626667 126.424,20.636 C127.021333,20.3093333 127.495,19.845 127.845,19.243 C128.195,18.641 128.37,17.9433333 128.37,17.15 C128.37,16.3566667 128.199667,15.6613333 127.859,15.064 C127.518333,14.4666667 127.054,14.007 126.466,13.685 C125.878,13.363 125.22,13.202 124.492,13.202 C123.764,13.202 123.106,13.363 122.518,13.685 C121.93,14.007 121.465667,14.469 121.125,15.071 C120.784333,15.673 120.614,16.366 120.614,17.15 C120.614,17.9433333 120.779667,18.641 121.111,19.243 C121.442333,19.845 121.899667,20.3093333 122.483,20.636 C123.066333,20.9626667 123.717333,21.126 124.436,21.126 Z M124.436,20.006 C123.978667,20.006 123.558667,19.901 123.176,19.691 C122.793333,19.481 122.487667,19.1613333 122.259,18.732 C122.030333,18.3026667 121.916,17.7753333 121.916,17.15 C121.916,16.534 122.032667,16.0113333 122.266,15.582 C122.499333,15.1526667 122.809667,14.833 123.197,14.623 C123.584333,14.413 124.011333,14.308 124.478,14.308 C124.935333,14.308 125.36,14.413 125.752,14.623 C126.144,14.833 126.461333,15.1526667 126.704,15.582 C126.946667,16.0113333 127.068,16.534 127.068,17.15 C127.068,17.766 126.944333,18.2886667 126.697,18.718 C126.449667,19.1473333 126.125333,19.4693333 125.724,19.684 C125.322667,19.8986667 124.893333,20.006 124.436,20.006 Z M133.396,21.126 C134.124,21.126 134.786667,20.9626667 135.384,20.636 C135.981333,20.3093333 136.455,19.845 136.805,19.243 C137.155,18.641 137.33,17.9433333 137.33,17.15 C137.33,16.3566667 137.159667,15.6613333 136.819,15.064 C136.478333,14.4666667 136.014,14.007 135.426,13.685 C134.838,13.363 134.18,13.202 133.452,13.202 C132.724,13.202 132.066,13.363 131.478,13.685 C130.89,14.007 130.425667,14.469 130.085,15.071 C129.744333,15.673 129.574,16.366 129.574,17.15 C129.574,17.9433333 129.739667,18.641 130.071,19.243 C130.402333,19.845 130.859667,20.3093333 131.443,20.636 C132.026333,20.9626667 132.677333,21.126 133.396,21.126 Z M133.396,20.006 C132.938667,20.006 132.518667,19.901 132.136,19.691 C131.753333,19.481 131.447667,19.1613333 131.219,18.732 C130.990333,18.3026667 130.876,17.7753333 130.876,17.15 C130.876,16.534 130.992667,16.0113333 131.226,15.582 C131.459333,15.1526667 131.769667,14.833 132.157,14.623 C132.544333,14.413 132.971333,14.308 133.438,14.308 C133.895333,14.308 134.32,14.413 134.712,14.623 C135.104,14.833 135.421333,15.1526667 135.664,15.582 C135.906667,16.0113333 136.028,16.534 136.028,17.15 C136.028,17.766 135.904333,18.2886667 135.657,18.718 C135.409667,19.1473333 135.085333,19.4693333 134.684,19.684 C134.282667,19.8986667 133.853333,20.006 133.396,20.006 Z M140.284,21 L140.284,16.758 C140.284,15.9553333 140.482333,15.344 140.879,14.924 C141.275667,14.504 141.81,14.294 142.482,14.294 C143.144667,14.294 143.667333,14.497 144.05,14.903 C144.432667,15.309 144.624,15.8946667 144.624,16.66 L144.624,16.66 L144.624,21 L145.884,21 L145.884,16.478 C145.884,15.414 145.594667,14.5996667 145.016,14.035 C144.437333,13.4703333 143.681333,13.188 142.748,13.188 C142.225333,13.188 141.747,13.2953333 141.313,13.51 C140.879,13.7246667 140.536,14.028 140.284,14.42 L140.284,14.42 L140.284,13.328 L139.01,13.328 L139.01,21 L140.284,21 Z" id="ComingSoon-Copy-2" fill="#FFFFFF" fill-rule="nonzero"></path>
                        <rect id="Rectangle-1-Copy-2" stroke="#FFFFFF" stroke-width="2" x="1" y="1" width="195.8" height="63" rx="15"></rect>
                        <path d="M35.7342929,52.0157796 C35.2895089,51.8959729 35,51.4543815 35,50.7710387 L35,28.2148983 C35,27.5820187 35.2451314,27.1551876 35.633712,27 L35.633712,27 L46.7182637,39.5702166 L35.7342929,52.0157796 L35.7342929,52.0157796 Z M37.2601611,51.536985 L50.6024631,43.9750161 L47.3527558,40.2897498 L37.2601611,51.536985 L37.2601611,51.536985 Z M50.6943394,35.0650607 L37.5379767,27.6067428 L47.3719936,38.8294975 L50.6943394,35.0650607 L50.6943394,35.0650607 Z M51.5869879,35.5711015 L56.7409264,38.4928597 C57.716763,39.0460597 57.725687,39.9378119 56.7409264,40.4959412 L51.4565983,43.4909209 L48.0098723,39.557456 L51.5869879,35.5711015 L51.5869879,35.5711015 Z" id="google-play-copy" fill="#FFFFFF"></path>
                        <path d="M112.747687,36.1309861 L111.463087,36.8644135 L110.217703,36.8644135 C110.678186,37.2473588 111.638962,38.0601407 111.638962,39.6015406 C111.638962,41.1038645 110.801774,41.8120428 109.957455,42.4823474 C109.698396,42.746261 109.395369,43.0324179 109.395369,43.4748791 C109.395369,43.9239531 109.698396,44.1674269 109.916457,44.3489803 L110.640753,44.9146813 C111.521316,45.666745 112.324042,46.356287 112.324042,47.7570131 C112.324042,49.6651268 110.498746,51.589472 107.049578,51.589472 C104.144077,51.589472 102.739454,50.189347 102.739454,48.6882255 C102.739454,47.9578039 103.098928,46.9231903 104.284895,46.2144109 C105.527903,45.4455144 107.211787,45.3427143 108.11374,45.2825973 C107.832102,44.9146813 107.510655,44.5293313 107.510655,43.9005074 C107.510655,43.5566382 107.612853,43.3516392 107.711485,43.1099689 C107.492236,43.1310098 107.271204,43.1526519 107.070374,43.1526519 C104.943832,43.1526519 103.741822,41.547528 103.741822,39.9658497 C103.741822,39.0328338 104.162496,37.997619 105.026422,37.2473588 C106.169609,36.2951055 107.532639,36.1309861 108.615815,36.1309861 L112.747687,36.1309861 Z M108.335366,45.8488995 C108.153549,45.8488995 107.070374,45.8885767 106.231403,46.1735313 C105.787556,46.3376507 104.504739,46.8227949 104.504739,48.2637995 C104.504739,49.7017981 105.889754,50.7388164 108.032338,50.7388164 C109.957455,50.7388164 110.979431,49.8051994 110.979431,48.5481529 C110.979431,47.5135393 110.318118,46.9676769 108.797037,45.8705416 C108.632452,45.8488995 108.533819,45.8488995 108.335366,45.8488995 Z M152.72952,36.0642562 L156.156,44.379 L159.550615,36.0642562 L160.697961,36.0642562 L155.825157,47.675254 C155.319516,48.8715823 154.52392,49.4469021 153.431238,49.4469021 C153.103255,49.4469021 152.670697,49.3879874 152.41758,49.3092341 L152.591673,48.3623913 C152.808545,48.460382 153.178715,48.5204991 153.413412,48.5204991 C154.033728,48.5204991 154.465691,48.2637995 154.853685,47.3572351 L155.59343,45.6613344 L151.598217,36.0642562 L152.72952,36.0642562 Z M134.603115,35.8267941 C137.118246,35.8267941 138.81223,37.757151 138.81223,40.8128982 C138.81223,43.8482057 137.118246,45.818841 134.603115,45.818841 C133.2793,45.818841 132.093333,45.1280966 131.332793,44.0453894 L131.332793,49.2124457 L130.318541,49.2124457 L130.318541,36.0642562 L131.332793,36.0642562 L131.332793,37.5617708 C131.993512,36.593887 133.20087,35.8267941 134.603115,35.8267941 Z M75.5929239,31.8326205 C76.6071755,31.8326205 77.5828059,31.9835142 78.4716872,32.2287915 C79.880469,32.6291708 80.5394058,33.1227313 80.951167,33.4118941 L79.389683,34.9124145 L78.7313404,35.0615047 L79.2007363,34.3046316 C78.5649722,33.6764089 77.3962359,32.516752 75.1781919,32.516752 C72.2126794,32.516752 69.9756219,34.797591 69.9756219,38.1274718 C69.9756219,41.7038322 72.5299673,45.0679796 76.6267832,45.0679796 C77.8305756,45.0679796 78.450297,44.8233034 79.0129779,44.5948588 L79.0129779,41.5288917 L76.1746183,41.6833924 L77.6790618,40.8658012 L81.6623908,40.8658012 L81.1751698,41.3401243 C81.0438578,41.4531443 81.0260326,41.4916192 80.989194,41.643114 C80.9695863,41.816251 80.951167,42.3669227 80.951167,42.5604995 L80.951167,44.8792122 L78.2631328,45.5020244 C77.1740156,45.6757625 76.1960085,45.8284597 75.1603667,45.8284597 C69.9756219,45.8284597 68,41.9671447 68,38.945063 C68,35.2544802 70.7991443,31.8326205 75.5929239,31.8326205 Z M146.851377,35.8225859 C147.957131,35.8225859 148.851954,36.0919101 149.526339,36.6293561 C150.20013,37.1613915 150.538214,37.930288 150.538214,38.9354443 L150.538214,43.6305821 C150.538214,43.9678385 150.554257,44.2936726 150.595849,44.6110904 C150.638629,44.9291094 150.706959,45.2465271 150.797867,45.553725 L149.629131,45.553725 C149.561395,45.2236827 149.510297,44.9327164 149.472864,44.6898437 C149.441967,44.4475722 149.424142,44.1998901 149.424142,43.9479999 C149.076551,44.4644049 148.583982,44.8942415 147.954754,45.2327002 C147.324932,45.5735636 146.726601,45.7406889 145.906049,45.7406889 C144.917941,45.7406889 144.150865,45.4948103 143.603633,44.9958392 C143.058183,44.4974693 142.783675,43.8223553 142.783675,42.9680927 C142.783675,42.1150325 143.181177,41.4224846 143.973802,40.8928538 C144.766427,40.3608184 145.79078,40.0963036 147.058743,40.0963036 L149.424142,40.0963036 L149.424142,38.9138021 C149.424142,38.2326765 149.194791,37.697034 148.736685,37.3086782 C148.276796,36.9197212 147.631525,36.7231386 146.794931,36.7231386 C146.030231,36.7231386 145.409916,36.9028884 144.937549,37.2527694 C144.469341,37.6098644 144.233455,38.0523255 144.233455,38.5855633 L143.195437,38.5855633 L143.174046,38.5344639 C143.136614,37.8154645 143.461626,37.1848372 144.152648,36.6401771 C144.840699,36.0961183 145.742058,35.8225859 146.851377,35.8225859 Z M121.867633,35.868876 C122.588958,35.868876 123.32989,36.0516317 123.932381,36.4369817 C124.934155,37.1072862 125.193214,37.9783816 125.337003,38.4448895 L120.623437,40.3716394 L119.079778,40.4930758 C119.579477,43.0720952 121.303764,44.5720144 123.209273,44.5720144 C124.161137,44.5720144 124.867607,44.2576024 125.515849,43.9335718 C125.515849,43.9335718 125.645973,43.8650384 125.553282,43.9588209 L124.594288,44.8744029 C124.372662,44.9976427 124.152224,45.1407212 123.932381,45.2423189 C123.266314,45.5483145 122.588958,45.6252642 121.987062,45.6252642 C121.346544,45.6252642 120.342393,45.5831823 119.318041,44.8335233 C117.894999,43.8193495 117.272901,42.0759564 117.272901,40.5567998 C117.272901,37.4114783 119.803479,35.868876 121.867633,35.868876 Z M98.0870873,35.868876 C101.034775,35.868876 102.880867,38.2038203 102.880867,40.6553917 C102.880867,43.0498519 101.056165,45.5831823 97.7864362,45.5831823 C94.5992976,45.5831823 92.894024,43.0720952 92.894024,40.7984701 C92.894024,38.1418998 95.0377966,35.868876 98.0870873,35.868876 Z M87.4181349,35.868876 C90.3640397,35.868876 92.2083495,38.2038203 92.2083495,40.6553917 C92.2083495,43.0498519 90.386024,45.5831823 87.1157014,45.5831823 C83.9279686,45.5831823 82.2256659,43.0720952 82.2256659,40.7984701 C82.2256659,38.1418998 84.3700326,35.868876 87.4181349,35.868876 Z M141.210902,32.4337905 L141.210902,45.58198 L140.197245,45.58198 L140.197245,32.4337905 L141.210902,32.4337905 Z M116.589603,31 C115.968099,31.364309 115.782123,31.5861408 115.702504,32.2961226 L115.697751,43.8019156 C115.697751,44.5900495 115.836787,44.7126881 116.495724,44.7746087 C116.839155,44.8154882 117.181398,44.8335233 117.520076,44.8744029 L116.77855,45.3210722 L113.245009,45.3210722 C113.708463,44.7126881 113.788082,44.65197 113.788082,44.2467814 L113.788082,43.7941004 L113.780358,31.7322251 L112.220062,31.7322251 L113.722129,31 L116.589603,31 Z M86.8970461,36.498301 C86.233356,36.498301 85.5744192,36.75981 85.0931399,37.1866407 C84.3088329,37.8966225 84.1697966,38.7887588 84.1697966,39.6640623 C84.1697966,41.6683632 85.1531513,44.9741971 87.5791555,44.9741971 C88.3616801,44.9741971 89.1608414,44.5900495 89.6237014,43.9419882 C90.1049807,43.2927246 90.2250034,42.4823474 90.2250034,41.69241 C90.2250034,39.9057327 89.3812792,36.498301 86.8970461,36.498301 Z M97.5683751,36.498301 C96.9070617,36.498301 96.2409949,36.75981 95.7609039,37.1866407 C94.9777852,37.8966225 94.8381548,38.7887588 94.8381548,39.6640623 C94.8381548,41.6683632 95.8173502,44.9741971 98.2475137,44.9741971 C99.0318207,44.9741971 99.8321704,44.5900495 100.293842,43.9419882 C100.778686,43.2927246 100.896332,42.4823474 100.896332,41.69241 C100.896332,39.9057327 100.054985,36.498301 97.5683751,36.498301 Z M134.431994,36.7531971 C133.12541,36.7531971 131.875866,37.7920189 131.332793,38.6979821 L131.332793,42.9067734 C131.875866,43.8145401 133.12541,44.8912356 134.431994,44.8912356 C136.535957,44.8912356 137.722518,43.1195876 137.722518,40.8128982 C137.722518,38.5098159 136.535957,36.7531971 134.431994,36.7531971 Z M149.424142,40.9108889 L147.047454,40.9108889 C146.139559,40.9108889 145.387931,41.1140844 144.79673,41.5240824 C144.204341,41.932878 143.904284,42.4276409 143.904284,43.0029606 C143.904284,43.5458171 144.094419,43.9798619 144.472312,44.3087019 C144.851394,44.6411489 145.369512,44.8058695 146.030231,44.8058695 C146.891781,44.8058695 147.510908,44.6110904 148.143701,44.2257404 C148.772335,43.8427951 149.200139,43.3432228 149.424142,42.7384458 L149.424142,40.9108889 Z M107.350823,36.8018919 C106.830922,36.8018919 106.267647,37.0658055 105.947983,37.4739999 C105.608711,37.8966225 105.507107,38.4448895 105.507107,38.9721156 C105.507107,40.3307599 106.290226,42.5839451 108.01273,42.5839451 C108.5154,42.5839451 109.056096,42.3368642 109.373384,42.0158394 C109.836838,41.547528 109.877242,40.9006691 109.877242,40.5333542 C109.877242,39.0743145 109.017475,36.8018919 107.350823,36.8018919 Z M121.303764,36.5379782 C120.50282,36.5379782 118.998971,37.1692067 118.998971,39.3610726 C118.998971,39.5891165 119.016928,39.8270462 119.034885,40.0682712 L119.059576,40.4317564 L122.709575,38.8290372 L122.830302,38.782611 C123.133997,38.6593885 123.291269,38.5355326 123.291269,38.2843771 C123.291269,37.4739999 122.385157,36.5379782 121.303764,36.5379782 Z" id="Combined-Shape-Copy-3" fill="#FFFFFF"></path>
                    </g>
                </g>
            </g>
        </g>
    </g>
</svg>