<?xml version="1.0" encoding="UTF-8"?>
<svg width="23px" height="23px" viewBox="0 0 23 23" version="1.1" xmlns="http://www.w3.org/2000/svg" xmlns:xlink="http://www.w3.org/1999/xlink">
    <title>Bag 2</title>
    <g id="Page-1" stroke="none" stroke-width="1" fill="none" fill-rule="evenodd">
        <g id="Desktop-HD-Copy-9" transform="translate(-1304.000000, -51.000000)" fill="#FFFFFF" fill-rule="nonzero">
            <path d="M1315.2135,51.0000487 C1318.00344,51.0000487 1320.2803,53.1976748 1320.40813,55.9567148 L1320.412,56.145 L1320.666,56.1455701 C1323.77294,56.1455701 1326.3047,58.603692 1326.42078,61.6805046 L1326.42494,61.9013043 L1326.42494,68.2446868 C1326.42494,71.4238521 1323.84691,74.000421 1320.666,74.000421 L1320.666,74.000421 L1309.75894,74.000421 C1306.57802,74.000421 1304,71.4238521 1304,68.2446868 L1304,68.2446868 L1304,61.9013043 C1304,58.7221389 1306.57802,56.1455701 1309.75894,56.1455701 L1309.75894,56.1455701 L1309.993,56.145 L1309.99803,55.9584466 C1310.12524,53.1882554 1312.41765,50.9880629 1315.2135,51.0000487 Z M1320.666,57.8705653 L1320.413,57.87 L1320.41379,59.6883653 C1320.41379,60.1647096 1320.02764,60.550863 1319.55129,60.550863 C1319.11464,60.550863 1318.75378,60.2263869 1318.69667,59.8054012 L1318.68879,59.6883653 L1318.688,57.87 L1311.717,57.87 L1311.71751,59.6883653 C1311.71751,60.1647096 1311.33136,60.550863 1310.85502,60.550863 C1310.41837,60.550863 1310.0575,60.2263869 1310.00039,59.8054012 L1309.99252,59.6883653 L1309.992,57.87 L1309.75894,57.8705653 C1307.59802,57.8705653 1305.83481,59.5673402 1305.72993,61.7001175 L1305.725,61.9013043 L1305.725,68.2446868 C1305.725,70.4709455 1307.53049,72.2754257 1309.75894,72.2754257 L1309.75894,72.2754257 L1320.666,72.2754257 C1322.89444,72.2754257 1324.69994,70.4709455 1324.69994,68.2446868 L1324.69994,68.2446868 L1324.69994,61.9013043 C1324.69994,59.6750456 1322.89444,57.8705653 1320.666,57.8705653 L1320.666,57.8705653 Z M1315.20979,52.7250851 C1313.35771,52.7171187 1311.83792,54.1572458 1311.7243,55.9781855 L1311.718,56.145 L1318.687,56.145 L1318.68365,56.0108199 C1318.58465,54.1794295 1317.06864,52.7250929 1315.20979,52.7250851 Z" id="Bag-2"></path>
        </g>
    </g>
</svg>