<?xml version="1.0" encoding="UTF-8"?>
<svg width="63px" height="70px" viewBox="0 0 63 70" version="1.1" xmlns="http://www.w3.org/2000/svg" xmlns:xlink="http://www.w3.org/1999/xlink">
    <title>Calendar</title>
    <g id="Page-1" stroke="none" stroke-width="1" fill="none" fill-rule="evenodd">
        <g id="Desktop-HD-Copy-9" transform="translate(-702.000000, -779.000000)" fill="#FFFFFF" fill-rule="nonzero">
            <path d="M746.564158,779 C747.790862,779 748.804658,779.918641 748.965105,781.110514 L748.987225,781.44186 L748.987979,784.201966 C758.820042,784.87636 764.885877,791.164067 764.998407,801.331331 L764.999878,801.700258 L764.999878,831.410523 C764.999878,842.29374 758.311451,848.851518 747.531821,848.99751 L747.162753,849 L719.83689,849 C708.977587,849 702.154548,842.454898 702.002592,831.538075 L702,831.16422 L702,801.700258 C702,791.319702 708.112951,784.886033 718.042421,784.202193 L718.042347,781.44186 C718.042347,780.093258 719.127191,779 720.465414,779 C721.692119,779 722.705915,779.918641 722.866362,781.110514 L722.888482,781.44186 L722.888,784.141 L744.141,784.141 L744.14109,781.44186 C744.14109,780.093258 745.225934,779 746.564158,779 Z M760.153,807.99 L706.846,807.99 L706.846135,831.16422 C706.846135,839.45146 711.363469,843.983787 719.476626,844.113419 L719.83689,844.116279 L747.162753,844.116279 C755.409713,844.116279 760.018955,839.796372 760.150824,831.767158 L760.153734,831.410523 L760.153,807.99 Z M747.881067,828.476057 C749.21929,828.476057 750.304134,829.569315 750.304134,830.917917 C750.304134,832.154136 749.392564,833.175795 748.209863,833.337487 L747.881067,833.359778 C746.512914,833.359778 745.428069,832.26652 745.428069,830.917917 C745.428069,829.681699 746.33964,828.66004 747.522341,828.498348 L747.881067,828.476057 Z M733.544716,828.476057 C734.882939,828.476057 735.967783,829.569315 735.967783,830.917917 C735.967783,832.154136 735.056213,833.175795 733.873512,833.337487 L733.544716,833.359778 C732.176563,833.359778 731.091719,832.26652 731.091719,830.917917 C731.091719,829.681699 732.003289,828.66004 733.18599,828.498348 L733.544716,828.476057 Z M719.178435,828.476057 C720.516658,828.476057 721.601503,829.569315 721.601503,830.917917 C721.601503,832.154136 720.689932,833.175795 719.507231,833.337487 L719.148505,833.359778 C717.810282,833.359778 716.725438,832.26652 716.725438,830.917917 C716.725438,829.681699 717.637008,828.66004 718.819709,828.498348 L719.178435,828.476057 Z M747.881067,815.822255 C749.21929,815.822255 750.304134,816.915513 750.304134,818.264116 C750.304134,819.500334 749.392564,820.521993 748.209863,820.683685 L747.881067,820.705976 C746.512914,820.705976 745.428069,819.612718 745.428069,818.264116 C745.428069,817.027897 746.33964,816.006238 747.522341,815.844547 L747.881067,815.822255 Z M733.544716,815.822255 C734.882939,815.822255 735.967783,816.915513 735.967783,818.264116 C735.967783,819.500334 735.056213,820.521993 733.873512,820.683685 L733.544716,820.705976 C732.176563,820.705976 731.091719,819.612718 731.091719,818.264116 C731.091719,817.027897 732.003289,816.006238 733.18599,815.844547 L733.544716,815.822255 Z M719.178435,815.822255 C720.516658,815.822255 721.601503,816.915513 721.601503,818.264116 C721.601503,819.500334 720.689932,820.521993 719.507231,820.683685 L719.148505,820.705976 C717.810282,820.705976 716.725438,819.612718 716.725438,818.264116 C716.725438,817.027897 717.637008,816.006238 718.819709,815.844547 L719.178435,815.822255 Z M744.141,789.025 L722.888,789.025 L722.888482,792.156028 C722.888482,793.504631 721.803638,794.597889 720.465414,794.597889 C719.23871,794.597889 718.224914,793.679248 718.064467,792.487374 L718.042347,792.156028 L718.042459,789.097945 C710.930505,789.693406 706.971242,793.936029 706.849051,801.344477 L706.846135,801.700258 L706.846,803.106 L760.153,803.106 L760.153734,801.692764 C760.176885,794.059825 756.227429,789.700104 748.987897,789.097525 L748.987225,792.156028 C748.987225,793.504631 747.902381,794.597889 746.564158,794.597889 C745.337453,794.597889 744.323657,793.679248 744.16321,792.487374 L744.14109,792.156028 L744.141,789.025 Z" id="Calendar"></path>
        </g>
    </g>
</svg>