<?xml version="1.0" encoding="UTF-8"?>
<svg width="72px" height="72px" viewBox="0 0 72 72" version="1.1" xmlns="http://www.w3.org/2000/svg" xmlns:xlink="http://www.w3.org/1999/xlink">
    <title>vuesax/outline/scanning</title>
    <g id="Page-1" stroke="none" stroke-width="1" fill="none" fill-rule="evenodd">
        <g id="Desktop-HD-Copy-9" transform="translate(-465.000000, -780.000000)" fill="#FFFFFF">
            <g id="scanning" transform="translate(465.166667, 780.166667)">
                <path d="M0,25.8333333 L0,17.5 C0,7.83333302 7.86666632,0 17.5,0 L25.8333333,0 C27.2,0 28.3333333,1.13333335 28.3333333,2.5 C28.3333333,3.86666665 27.2,5 25.8333333,5 L17.5,5 C10.6000002,5 5,10.6000002 5,17.5 L5,25.8333333 C5,27.2 3.86666665,28.3333333 2.5,28.3333333 C1.13333335,28.3333333 0,27.2 0,25.8333333 Z" id="Vector" fill-rule="nonzero"></path>
                <path d="M66.6666667,25.8333333 L66.6666667,17.5 C66.6666667,10.6000002 61.0666664,5 54.1666667,5 L45.8333333,5 C44.4666667,5 43.3333333,3.86666665 43.3333333,2.5 C43.3333333,1.13333335 44.4666667,0 45.8333333,0 L54.1666667,0 C63.8000003,0 71.6666667,7.83333302 71.6666667,17.5 L71.6666667,25.8333333 C71.6666667,27.2 70.5333333,28.3333333 69.1666667,28.3333333 C67.8,28.3333333 66.6666667,27.2 66.6666667,25.8333333 Z" id="Vector" fill-rule="nonzero"></path>
                <path d="M49.1666667,71.6666667 C47.8,71.6666667 46.6666667,70.5333333 46.6666667,69.1666667 C46.6666667,67.8 47.8,66.6666667 49.1666667,66.6666667 L54.1666667,66.6666667 C61.0666664,66.6666667 66.6666667,61.0666664 66.6666667,54.1666667 L66.6666667,49.1666667 C66.6666667,47.8 67.8,46.6666667 69.1666667,46.6666667 C70.5333333,46.6666667 71.6666667,47.8 71.6666667,49.1666667 L71.6666667,54.1666667 C71.6666667,63.8333337 63.8000003,71.6666667 54.1666667,71.6666667 L49.1666667,71.6666667 Z" id="Vector" fill-rule="nonzero"></path>
                <path d="M17.5,71.6666667 C7.86666632,71.6666667 0,63.8333333 0,54.1666667 L0,45.8333333 C0,44.4666667 1.13333335,43.3333333 2.5,43.3333333 C3.86666665,43.3333333 5,44.4666667 5,45.8333333 L5,54.1666667 C5,61.0666664 10.6000002,66.6666667 17.5,66.6666667 L25.8333333,66.6666667 C27.2,66.6666667 28.3333333,67.8 28.3333333,69.1666667 C28.3333333,70.5333333 27.2,71.6666667 25.8333333,71.6666667 L17.5,71.6666667 Z" id="Vector" fill-rule="nonzero"></path>
                <path d="M13.3333333,24.1666667 C13.3333333,18.2000001 18.2000001,13.3333333 24.1666667,13.3333333 C30.1333332,13.3333333 35,18.2000001 35,24.1666667 C35,30.1333332 30.1333332,35 24.1666667,35 C18.2000001,35 13.3333333,30.1333332 13.3333333,24.1666667 Z M18.3333333,24.1666667 C18.3333333,27.3666666 20.9666667,30 24.1666667,30 C27.3666666,30 30,27.3666666 30,24.1666667 C30,20.9666667 27.3666666,18.3333333 24.1666667,18.3333333 C20.9666667,18.3333333 18.3333333,20.9666667 18.3333333,24.1666667 Z" id="Vector"></path>
                <path d="M13.3333333,50.8333333 C13.3333333,46.7 16.7,43.3333333 20.8333333,43.3333333 C24.9666667,43.3333333 28.3333333,46.7 28.3333333,50.8333333 C28.3333333,54.9666667 24.9666667,58.3333333 20.8333333,58.3333333 C16.7,58.3333333 13.3333333,54.9666667 13.3333333,50.8333333 Z M18.3333333,50.8333333 C18.3333333,52.2 19.4666667,53.3333333 20.8333333,53.3333333 C22.2,53.3333333 23.3333333,52.2 23.3333333,50.8333333 C23.3333333,49.4666667 22.2,48.3333333 20.8333333,48.3333333 C19.4666667,48.3333333 18.3333333,49.4666667 18.3333333,50.8333333 Z" id="Vector"></path>
                <path d="M43.3333333,20.8333333 C43.3333333,16.7 46.7,13.3333333 50.8333333,13.3333333 C54.9666667,13.3333333 58.3333333,16.7 58.3333333,20.8333333 C58.3333333,24.9666667 54.9666667,28.3333333 50.8333333,28.3333333 C46.7,28.3333333 43.3333333,24.9666667 43.3333333,20.8333333 Z M48.3333333,20.8333333 C48.3333333,22.2 49.4666667,23.3333333 50.8333333,23.3333333 C52.2,23.3333333 53.3333333,22.2 53.3333333,20.8333333 C53.3333333,19.4666667 52.2,18.3333333 50.8333333,18.3333333 C49.4666667,18.3333333 48.3333333,19.4666667 48.3333333,20.8333333 Z" id="Vector"></path>
                <path d="M36.6666667,47.5 C36.6666667,41.5333335 41.5333335,36.6666667 47.5,36.6666667 C53.4666665,36.6666667 58.3333333,41.5333335 58.3333333,47.5 C58.3333333,53.4666665 53.4666665,58.3333333 47.5,58.3333333 C41.5333335,58.3333333 36.6666667,53.4666665 36.6666667,47.5 Z M41.6666667,47.5 C41.6666667,50.6999999 44.3000001,53.3333333 47.5,53.3333333 C50.6999999,53.3333333 53.3333333,50.6999999 53.3333333,47.5 C53.3333333,44.3000001 50.6999999,41.6666667 47.5,41.6666667 C44.3000001,41.6666667 41.6666667,44.3000001 41.6666667,47.5 Z" id="Vector"></path>
            </g>
        </g>
    </g>
</svg>