<?xml version="1.0" encoding="UTF-8"?>
<svg width="23px" height="25px" viewBox="0 0 23 25" version="1.1" xmlns="http://www.w3.org/2000/svg" xmlns:xlink="http://www.w3.org/1999/xlink">
    <title>google play copy</title>
    <g id="Page-1" stroke="none" stroke-width="1" fill="none" fill-rule="evenodd">
        <g id="Desktop-HD-Copy-9" transform="translate(-447.000000, -4659.000000)" fill="#FFFFFF">
            <g id="emotional-black-woman-showing-cellphone-with-blank-2021-12-09-07-52-41-utc-min-removebg-preview" transform="translate(123.000000, 4188.000000)">
                <g id="Group-6" transform="translate(68.000000, 444.000000)">
                    <path d="M256.734293,52.0157796 C256.289509,51.8959729 256,51.4543815 256,50.7710387 L256,28.2148983 C256,27.5820187 256.245131,27.1551876 256.633712,27 L256.633712,27 L267.718264,39.5702166 L256.734293,52.0157796 L256.734293,52.0157796 Z M258.260161,51.536985 L271.602463,43.9750161 L268.352756,40.2897498 L258.260161,51.536985 L258.260161,51.536985 Z M271.694339,35.0650607 L258.537977,27.6067428 L268.371994,38.8294975 L271.694339,35.0650607 L271.694339,35.0650607 Z M272.586988,35.5711015 L277.740926,38.4928597 C278.716763,39.0460597 278.725687,39.9378119 277.740926,40.4959412 L272.456598,43.4909209 L269.009872,39.557456 L272.586988,35.5711015 L272.586988,35.5711015 Z" id="google-play-copy"></path>
                </g>
            </g>
        </g>
    </g>
</svg>