<svg width="27" height="27" viewBox="0 0 27 27" fill="none" xmlns="http://www.w3.org/2000/svg">
<path d="M7.69659 0C3.45163 0 0 3.45162 0 7.69659V18.3534C0 22.5984 3.45163 26.05 7.69659 26.05H18.3534C22.5984 26.05 26.05 22.5984 26.05 18.3534V7.69659C26.05 3.45162 22.5984 0 18.3534 0H7.69659ZM20.1295 4.73636C20.7808 4.73636 21.3136 5.2692 21.3136 5.92045C21.3136 6.5717 20.7808 7.10454 20.1295 7.10454C19.4783 7.10454 18.9454 6.5717 18.9454 5.92045C18.9454 5.2692 19.4783 4.73636 20.1295 4.73636ZM13.025 6.5125C16.6187 6.5125 19.5375 9.43128 19.5375 13.025C19.5375 16.6187 16.6187 19.5375 13.025 19.5375C9.43128 19.5375 6.5125 16.6187 6.5125 13.025C6.5125 9.43128 9.43128 6.5125 13.025 6.5125ZM13.025 7.69659C10.0885 7.69659 7.69659 10.0885 7.69659 13.025C7.69659 15.9615 10.0885 18.3534 13.025 18.3534C15.9615 18.3534 18.3534 15.9615 18.3534 13.025C18.3534 10.0885 15.9615 7.69659 13.025 7.69659Z" fill="#6236FF"/>
</svg>
