<?xml version="1.0" encoding="UTF-8"?>
<svg width="23px" height="27px" viewBox="0 0 23 27" version="1.1" xmlns="http://www.w3.org/2000/svg" xmlns:xlink="http://www.w3.org/1999/xlink">
    <title>Imported Layers Copy</title>
    <g id="Page-1" stroke="none" stroke-width="1" fill="none" fill-rule="evenodd">
        <g id="Desktop-HD-Copy-9" transform="translate(-225.000000, -4657.000000)" fill="#FFFFFF">
            <g id="emotional-black-woman-showing-cellphone-with-blank-2021-12-09-07-52-41-utc-min-removebg-preview" transform="translate(123.000000, 4188.000000)">
                <g id="Group-6" transform="translate(68.000000, 444.000000)">
                    <path d="M50.4687764,30.8178571 C53.4878818,30.8178571 55.4184749,33.739 55.4184749,33.739 C55.4184749,33.739 52.4734266,35.3371429 52.4734266,38.8079286 C52.4734266,42.9273571 56.1730916,44.1256429 56.1730916,44.1256429 C56.1730916,44.1256429 53.2529419,51.0543571 49.973998,51.0543571 C48.1302305,51.0543571 48.0070148,49.9936429 45.5567448,49.9936429 C43.4288788,49.9936429 42.7112906,51.0543571 41.090333,51.0543571 C37.996532,51.0543571 34,44.3005 34,38.8079286 C34,33.1025714 38.0463291,30.8178571 40.5827862,30.8178571 C42.8102463,30.8178571 43.7378759,32.1286429 45.5318463,32.1286429 C47.0417182,32.1286429 48.2298246,30.8178571 50.4687764,30.8178571 L50.4687764,30.8178571 Z M49.9497379,25 C50.3947192,27.7964286 47.8582621,31.255 44.8270266,31.1425 C44.3814069,27.5842857 47.6482207,25.1877143 49.9497379,25 L49.9497379,25 Z" id="Imported-Layers-Copy"></path>
                </g>
            </g>
        </g>
    </g>
</svg>