<svg width="26" height="26" viewBox="0 0 26 26" fill="none" xmlns="http://www.w3.org/2000/svg">
<path d="M5.57111 7.42815V25.07H0V7.42815H5.57111ZM0 2.29344C0 0.993515 1.11422 0 2.78556 0C4.45689 0 5.50611 0.993515 5.57111 2.29344C5.57111 3.59337 4.53117 4.64259 2.78556 4.64259C1.11422 4.64259 0 3.59337 0 2.29344ZM25.9985 25.07H20.4274C20.4274 25.07 20.4274 16.4719 20.4274 15.7848C20.4274 13.9278 19.4989 12.0707 17.1776 12.0336H17.1033C14.8563 12.0336 13.9278 13.9463 13.9278 15.7848C13.9278 16.6298 13.9278 25.07 13.9278 25.07H8.35667V7.42815H13.9278V9.80516C13.9278 9.80516 15.7198 7.42815 19.3225 7.42815C23.0087 7.42815 25.9985 9.963 25.9985 15.0977V25.07Z" fill="#6236FF"/>
</svg>
