<?xml version="1.0" encoding="UTF-8"?>
<svg width="31px" height="27px" viewBox="0 0 31 27" version="1.1" xmlns="http://www.w3.org/2000/svg" xmlns:xlink="http://www.w3.org/1999/xlink">
    <title>vuesax/outline/sms-notification</title>
    <g id="Page-1" stroke="none" stroke-width="1" fill="none" fill-rule="evenodd">
        <g id="Desktop-HD-Copy-9" transform="translate(-426.000000, -4532.000000)" fill="#6236FF" fill-rule="nonzero">
            <g id="emotional-black-woman-showing-cellphone-with-blank-2021-12-09-07-52-41-utc-min-removebg-preview" transform="translate(123.000000, 4188.000000)">
                <g id="Group-2" transform="translate(68.000000, 326.000000)">
                    <g id="sms-notification" transform="translate(235.718750, 18.093750)">
                        <path d="M17.53125,0.6875 C18.095,0.6875 18.5625,1.155 18.5625,1.71875 C18.5625,2.2825 18.095,2.75 17.53125,2.75 L7.90625,2.75 C3.97375014,2.75 2.0625,4.66125014 2.0625,8.59375 L2.0625,18.21875 C2.0625,22.1512499 3.97375014,24.0625 7.90625,24.0625 L21.65625,24.0625 C25.5887499,24.0625 27.5,22.1512499 27.5,18.21875 L27.5,11.34375 C27.5,10.78 27.9675,10.3125 28.53125,10.3125 C29.095,10.3125 29.5625,10.78 29.5625,11.34375 L29.5625,18.21875 C29.5625,23.2375001 26.6750001,26.125 21.65625,26.125 L7.90625,26.125 C2.88749987,26.125 0,23.2375001 0,18.21875 L0,8.59375 C0,3.57499987 2.88749987,0.6875 7.90625,0.6875 L17.53125,0.6875 Z M8.53709011,8.46969965 L12.8408467,11.9071995 C13.8858466,12.7459495 15.6595933,12.7459495 16.7045933,11.9071995 L18.3270832,10.6146963 C18.7670832,10.2571963 19.4271084,10.3259396 19.7708584,10.7796896 C20.1283584,11.2196896 20.0596151,11.8796936 19.6058651,12.2234436 L17.9833332,13.515947 C17.1033332,14.2446969 15.9346017,14.6021878 14.7796017,14.6021878 C13.6246017,14.6021878 12.4558567,14.2446969 11.5621067,13.515947 L7.25835018,10.0784471 C6.81835019,9.72094716 6.73585689,9.07469294 7.09335687,8.63469295 C7.45085686,8.19469296 8.09709012,8.11219966 8.53709011,8.46969965 Z M25.09375,0 C27.5549999,0 29.5625,2.00750005 29.5625,4.46875 C29.5625,6.92999995 27.5549999,8.9375 25.09375,8.9375 C22.6325001,8.9375 20.625,6.92999995 20.625,4.46875 C20.625,2.00750005 22.6325001,0 25.09375,0 Z M25.09375,2.0625 C23.77375,2.0625 22.6875,3.14875003 22.6875,4.46875 C22.6875,5.78874997 23.77375,6.875 25.09375,6.875 C26.41375,6.875 27.5,5.78874997 27.5,4.46875 C27.5,3.14875003 26.41375,2.0625 25.09375,2.0625 Z" id="Combined-Shape"></path>
                    </g>
                </g>
            </g>
        </g>
    </g>
</svg>