<?xml version="1.0" encoding="UTF-8"?>
<svg width="60px" height="70px" viewBox="0 0 60 70" version="1.1" xmlns="http://www.w3.org/2000/svg" xmlns:xlink="http://www.w3.org/1999/xlink">
    <title>Shield Done</title>
    <g id="Page-1" stroke="none" stroke-width="1" fill="none" fill-rule="evenodd">
        <g id="Desktop-HD-Copy-9" transform="translate(-239.000000, -779.000000)" fill="#FFFFFF" fill-rule="nonzero">
            <path d="M266.598645,779.355914 C267.992983,778.881172 269.512983,778.881172 270.904701,779.357056 L270.904701,779.357056 L294.151014,787.294193 C296.757122,788.180725 298.5,790.569062 298.5,793.251918 L298.5,793.251918 L298.5,816.497732 C298.5,823.569621 295.870095,830.381299 291.130558,835.687448 C288.894422,838.194354 286.045166,840.283179 282.59869,842.094131 L282.59869,842.094131 L270.030357,848.690684 C269.244977,849.102894 268.298753,849.103118 267.513167,848.691279 L267.513167,848.691279 L254.922586,842.090741 C251.466734,840.277071 248.61784,838.192243 246.381926,835.686129 C241.635165,830.376261 239,823.560161 239,816.484004 L239,816.484004 L239,793.251918 C239,790.569062 240.742878,788.180725 243.346095,787.295178 L243.346095,787.295178 Z M269.145702,784.213291 C268.891315,784.126306 268.609784,784.126306 268.353145,784.213685 L268.353145,784.213685 L245.099898,792.153186 C244.619237,792.316694 244.298623,792.756045 244.298623,793.251918 L244.298623,793.251918 L244.298623,816.484004 C244.298623,822.316433 246.470624,827.934517 250.383963,832.312097 C252.161556,834.304501 254.509541,836.022764 257.439694,837.560541 L257.439694,837.560541 L268.767662,843.498983 L280.07926,837.565149 C282.635127,836.222167 284.752866,834.735972 286.433911,833.04958 L286.433911,833.04958 L287.127626,832.314417 C291.033806,827.941252 293.201377,822.327058 293.201377,816.497732 L293.201377,816.497732 L293.201377,793.251918 C293.201377,792.756045 292.880763,792.316694 292.397211,792.1522 L292.397211,792.1522 Z M281.893516,804.339653 C282.83408,805.253515 282.919586,806.683558 282.150034,807.691271 L281.893516,807.979976 L268.124162,821.358418 C267.183423,822.27245 265.711262,822.355366 264.674106,821.607289 L264.376975,821.357937 L257.693646,814.860915 C256.659299,813.855402 256.659742,812.225574 257.694636,811.220592 C258.635448,810.306972 260.1073,810.224272 261.144254,810.972243 L261.441328,811.221554 L266.24905,815.897796 L278.146824,804.339653 C279.181445,803.334406 280.858896,803.334406 281.893516,804.339653 Z" id="Shield-Done"></path>
        </g>
    </g>
</svg>