<svg width="30" height="25" viewBox="0 0 30 25" fill="none" xmlns="http://www.w3.org/2000/svg">
<path d="M29.7555 2.86214C28.6603 3.34851 27.4839 3.67581 26.2491 3.82344C27.5102 3.06813 28.4772 1.87224 28.9327 0.446316C27.754 1.14554 26.4471 1.65366 25.0555 1.92831C23.942 0.741571 22.3558 0 20.6003 0C17.2289 0 14.4961 2.73397 14.4961 6.10422C14.4961 6.58258 14.551 7.0495 14.654 7.49467C9.58091 7.24061 5.08342 4.80991 2.07136 1.11579C1.54723 2.01757 1.24625 3.06584 1.24625 4.18621C1.24625 6.30335 2.32313 8.17215 3.96076 9.2662C2.96056 9.23415 2.01872 8.9595 1.1959 8.50288C1.1959 8.5292 1.1959 8.55324 1.1959 8.57956C1.1959 11.5378 3.2993 14.0052 6.09278 14.5648C5.58123 14.7044 5.04108 14.7788 4.48375 14.7788C4.09122 14.7788 3.70785 14.7399 3.33592 14.67C4.11297 17.095 6.36743 18.8608 9.03846 18.91C6.94993 20.5477 4.31782 21.5239 1.45682 21.5239C0.964728 21.5239 0.478359 21.4952 0 21.438C2.70193 23.1695 5.90967 24.18 9.35775 24.18C20.5866 24.18 26.7251 14.8783 26.7251 6.81146C26.7251 6.54711 26.7194 6.28389 26.708 6.02183C27.9016 5.16009 28.9373 4.0855 29.7555 2.86214Z" fill="#6236FF"/>
</svg>
